<svg width="654" height="519" viewBox="0 0 654 519" fill="none" xmlns="http://www.w3.org/2000/svg">
<path fill-rule="evenodd" clip-rule="evenodd" d="M710.996 23.2604C695.158 14.1102 679.04 8.43039 665.417 5.29334C628.72 -3.15762 579.373 -1.04276 536.776 29.1636C536.444 29.3987 536.084 29.6537 535.696 29.9278C529.577 34.2509 516.711 43.3421 505.206 54.7577C504.46 55.4978 503.697 56.2699 502.918 57.0743C489.953 57.4769 478.492 58.503 470.117 59.2529L470.094 59.255C467.099 59.5232 463.934 59.7528 459.912 60.0367L459.095 60.0943C455.517 60.3465 451.075 60.6594 446.677 61.0417C437.942 61.801 423.641 63.2486 408.706 67.296C394.16 71.2379 369.452 80.0931 348.229 102.264C333.205 117.959 323.96 136.015 319.159 154.291C318.153 154.647 317.148 155.012 316.144 155.386C297.235 162.429 279.012 172.094 262.669 184.5C237.834 179.991 211.051 178.37 184.452 181.371C164.416 183.631 126.829 190.259 94.2689 202.877C80.744 208.118 51.9883 220.196 30.0716 245.146C17.4764 259.485 2.59319 283.372 1.11801 315.837C-0.390713 349.041 12.8163 375.431 26.4775 392.718C50.2304 422.775 83.4284 435.019 95.0743 439.235C107.244 443.641 121.851 447.599 129.104 449.564C130.586 449.966 131.762 450.284 132.546 450.506C154.893 456.83 184.138 463.654 216.305 465.605C226.191 470.625 234.891 474.141 240.974 476.535C259.031 483.642 280.287 490.032 293.932 494.133C297.491 495.203 300.532 496.117 302.864 496.848C372.808 518.767 445.702 518.361 502.727 516.999C531.505 516.312 568.432 515.049 604.134 508.007C624.477 503.995 647.474 497.561 670.28 486.462C678.009 488.229 685.163 489.752 691.503 491.101L692.789 491.375C734.769 500.313 784.859 502.651 836.214 483.089C837.228 482.702 838.33 482.281 839.509 481.826C851.133 486.15 862.158 489.585 871.961 492.058C933.151 507.493 997.793 508.531 1058.55 497.685C1073.29 495.053 1093.84 491.14 1114.33 485.246C1132.83 479.925 1161.32 470.302 1186.04 451.797C1215.71 429.586 1236.7 397.927 1243.07 360.004C1248.98 324.801 1240.75 293.652 1231 271.231C1212.25 228.136 1178.03 193.799 1148.03 173.014C1100.39 139.999 1038.01 131.716 1006.54 127.657C970.003 122.947 933.465 127.113 907.644 130.994C879.666 93.7709 835.014 75.8151 793.03 73.8103C787.989 73.5695 782.736 73.5029 777.331 73.6436C758.903 49.5647 734.579 33.5767 710.996 23.2604Z" fill="#D9E6F9"/>
<path d="M710.996 23.2604L710.496 24.1263L710.544 24.1542L710.595 24.1766L710.996 23.2604ZM665.417 5.29334L665.193 6.26783L665.193 6.26783L665.417 5.29334ZM536.776 29.1636L537.355 29.9793L537.355 29.9793L536.776 29.1636ZM535.696 29.9278L535.119 29.1111L535.119 29.1111L535.696 29.9278ZM505.206 54.7577L505.911 55.4676L505.911 55.4676L505.206 54.7577ZM502.918 57.0743L502.949 58.0738L503.355 58.0612L503.637 57.7697L502.918 57.0743ZM470.117 59.2529L470.207 60.2489L470.207 60.2489L470.117 59.2529ZM470.094 59.255L470.005 58.2589L470.005 58.2589L470.094 59.255ZM459.912 60.0367L459.982 61.0342L459.982 61.0342L459.912 60.0367ZM459.095 60.0943L459.165 61.0918L459.165 61.0918L459.095 60.0943ZM446.677 61.0417L446.591 60.0455L446.591 60.0455L446.677 61.0417ZM408.706 67.296L408.967 68.2612L408.967 68.2612L408.706 67.296ZM348.229 102.264L347.507 101.572L347.507 101.572L348.229 102.264ZM319.159 154.291L319.492 155.234L319.992 155.058L320.126 154.545L319.159 154.291ZM316.144 155.386L315.795 154.448L315.795 154.448L316.144 155.386ZM262.669 184.5L262.49 185.484L262.923 185.563L263.273 185.297L262.669 184.5ZM184.452 181.371L184.564 182.364L184.564 182.364L184.452 181.371ZM94.2689 202.877L93.9076 201.945L93.9076 201.945L94.2689 202.877ZM30.0716 245.146L29.3203 244.486L29.3203 244.486L30.0716 245.146ZM1.11801 315.837L0.119038 315.792L0.119038 315.792L1.11801 315.837ZM26.4775 392.718L27.2621 392.098L27.2621 392.098L26.4775 392.718ZM95.0743 439.235L95.4147 438.295L95.4147 438.295L95.0743 439.235ZM129.104 449.564L129.365 448.599L129.365 448.599L129.104 449.564ZM132.546 450.506L132.818 449.544L132.818 449.544L132.546 450.506ZM216.305 465.605L216.758 464.713L216.573 464.62L216.366 464.607L216.305 465.605ZM240.974 476.535L241.341 475.605L241.341 475.605L240.974 476.535ZM293.932 494.133L293.644 495.091L293.644 495.091L293.932 494.133ZM302.864 496.848L303.163 495.894L303.163 495.894L302.864 496.848ZM502.727 516.999L502.703 515.999L502.703 515.999L502.727 516.999ZM604.134 508.007L603.94 507.026L603.94 507.026L604.134 508.007ZM670.28 486.462L670.503 485.488L670.159 485.409L669.843 485.563L670.28 486.462ZM691.503 491.101L691.711 490.123L691.711 490.123L691.503 491.101ZM692.789 491.375L692.998 490.397L692.998 490.397L692.789 491.375ZM836.214 483.089L836.57 484.023L836.57 484.023L836.214 483.089ZM839.509 481.826L839.857 480.888L839.502 480.756L839.148 480.893L839.509 481.826ZM871.961 492.058L871.716 493.027L871.716 493.027L871.961 492.058ZM1058.55 497.685L1058.37 496.701L1058.37 496.701L1058.55 497.685ZM1114.33 485.246L1114.05 484.285L1114.05 484.285L1114.33 485.246ZM1186.04 451.797L1186.64 452.597L1186.64 452.597L1186.04 451.797ZM1243.07 360.004L1244.05 360.169L1244.05 360.169L1243.07 360.004ZM1231 271.231L1231.91 270.833L1231.91 270.833L1231 271.231ZM1148.03 173.014L1148.6 172.192L1148.6 172.192L1148.03 173.014ZM1006.54 127.657L1006.66 126.666L1006.66 126.666L1006.54 127.657ZM907.644 130.994L906.845 131.595L907.203 132.072L907.793 131.983L907.644 130.994ZM793.03 73.8103L793.077 72.8114L793.077 72.8114L793.03 73.8103ZM777.331 73.6436L776.537 74.2513L776.847 74.6565L777.357 74.6432L777.331 73.6436ZM711.496 22.3945C695.562 13.1887 679.349 7.47535 665.642 4.31885L665.193 6.26783C678.731 9.38542 694.754 15.0317 710.496 24.1263L711.496 22.3945ZM665.642 4.31885C628.742 -4.17874 579.084 -2.0636 536.198 28.3479L537.355 29.9793C579.662 -0.0219192 628.698 -2.1365 665.193 6.26783L665.642 4.31885ZM536.198 28.3479C535.867 28.5824 535.507 28.8369 535.119 29.1111L536.273 30.7445C536.661 30.4705 537.022 30.2151 537.355 29.9793L536.198 28.3479ZM535.119 29.1111C529 33.4342 516.072 42.5675 504.502 54.0479L505.911 55.4676C517.35 44.1168 530.155 35.0676 536.273 30.7445L535.119 29.1111ZM504.502 54.0479C503.752 54.7925 502.983 55.5694 502.2 56.3789L503.637 57.7697C504.41 56.9704 505.169 56.2031 505.911 55.4676L504.502 54.0479ZM502.887 56.0748C489.89 56.4784 478.403 57.507 470.028 58.2569L470.207 60.2489C478.582 59.4991 490.017 58.4754 502.949 58.0738L502.887 56.0748ZM470.028 58.2569L470.005 58.2589L470.184 60.251L470.207 60.2489L470.028 58.2569ZM470.005 58.2589C467.02 58.5262 463.864 58.7552 459.841 59.0392L459.982 61.0342C464.003 60.7503 467.177 60.5201 470.184 60.251L470.005 58.2589ZM459.841 59.0392L459.025 59.0968L459.165 61.0918L459.982 61.0342L459.841 59.0392ZM459.025 59.0968C455.447 59.3489 450.998 59.6624 446.591 60.0455L446.764 62.038C451.153 61.6565 455.586 61.3441 459.165 61.0918L459.025 59.0968ZM446.591 60.0455C437.842 60.8059 423.468 62.2593 408.444 66.3309L408.967 68.2612C423.813 64.2379 438.042 62.7961 446.764 62.038L446.591 60.0455ZM408.444 66.3309C393.813 70.296 368.907 79.2161 347.507 101.572L348.952 102.955C369.997 80.9702 394.507 72.1799 408.967 68.2612L408.444 66.3309ZM347.507 101.572C332.356 117.4 323.032 135.611 318.192 154.037L320.126 154.545C324.887 136.42 334.054 118.518 348.952 102.955L347.507 101.572ZM318.826 153.348C317.814 153.706 316.804 154.073 315.795 154.448L316.493 156.323C317.491 155.951 318.491 155.588 319.492 155.234L318.826 153.348ZM315.795 154.448C296.803 161.522 278.493 171.233 262.064 183.704L263.273 185.297C279.531 172.956 297.666 163.335 316.493 156.323L315.795 154.448ZM262.847 183.517C237.932 178.992 211.051 177.364 184.34 180.377L184.564 182.364C211.051 179.376 237.735 180.989 262.49 185.484L262.847 183.517ZM184.34 180.377C164.254 182.643 126.576 189.284 93.9076 201.945L94.6303 203.809C127.083 191.233 164.578 184.619 184.564 182.364L184.34 180.377ZM93.9076 201.945C80.353 207.197 51.4042 219.346 29.3203 244.486L30.8229 245.806C52.5724 221.047 81.135 209.039 94.6303 203.809L93.9076 201.945ZM29.3203 244.486C16.626 258.937 1.60757 283.032 0.119038 315.792L2.11698 315.882C3.57881 283.711 18.3268 260.032 30.8229 245.806L29.3203 244.486ZM0.119038 315.792C-1.40338 349.297 11.9253 375.916 25.6929 393.338L27.2621 392.098C13.7072 374.945 0.62195 348.785 2.11698 315.882L0.119038 315.792ZM25.6929 393.338C49.6326 423.632 83.0681 435.952 94.7338 440.175L95.4147 438.295C83.7888 434.086 50.8283 421.919 27.2621 392.098L25.6929 393.338ZM94.7338 440.175C106.949 444.598 121.596 448.566 128.842 450.529L129.365 448.599C122.107 446.632 107.54 442.685 95.4147 438.295L94.7338 440.175ZM128.842 450.529C130.328 450.931 131.496 451.248 132.274 451.468L132.818 449.544C132.027 449.32 130.845 449 129.365 448.599L128.842 450.529ZM132.274 451.468C154.656 457.803 183.978 464.646 216.245 466.603L216.366 464.607C184.298 462.662 155.129 455.858 132.818 449.544L132.274 451.468ZM215.853 466.497C225.781 471.538 234.515 475.067 240.608 477.466L241.341 475.605C235.267 473.214 226.602 469.712 216.758 464.713L215.853 466.497ZM240.608 477.466C258.71 484.591 280.006 490.992 293.644 495.091L294.22 493.176C280.568 489.072 259.352 482.694 241.341 475.605L240.608 477.466ZM293.644 495.091C297.205 496.162 300.24 497.074 302.565 497.802L303.163 495.894C300.824 495.161 297.777 494.245 294.22 493.176L293.644 495.091ZM302.565 497.802C372.683 519.775 445.727 519.36 502.75 517.999L502.703 515.999C445.678 517.361 372.934 517.758 303.163 495.894L302.565 497.802ZM502.75 517.999C531.529 517.312 568.533 516.048 604.327 508.988L603.94 507.026C568.332 514.05 531.481 515.312 502.703 515.999L502.75 517.999ZM604.327 508.988C624.727 504.965 647.812 498.508 670.718 487.362L669.843 485.563C647.136 496.613 624.227 503.025 603.94 507.026L604.327 508.988ZM670.057 487.437C677.795 489.206 684.956 490.73 691.295 492.079L691.711 490.123C685.371 488.774 678.224 487.253 670.503 485.488L670.057 487.437ZM691.295 492.079L692.581 492.353L692.998 490.397L691.711 490.123L691.295 492.079ZM692.581 492.353C734.682 501.317 784.979 503.676 836.57 484.023L835.858 482.154C784.738 501.627 734.857 499.309 692.998 490.397L692.581 492.353ZM836.57 484.023C837.585 483.636 838.688 483.215 839.869 482.759L839.148 480.893C837.971 481.348 836.871 481.768 835.858 482.154L836.57 484.023ZM839.16 482.763C850.814 487.099 861.874 490.545 871.716 493.027L872.206 491.088C862.441 488.625 851.451 485.202 839.857 480.888L839.16 482.763ZM871.716 493.027C933.055 508.5 997.841 509.538 1058.72 498.67L1058.37 496.701C997.745 507.524 933.247 506.486 872.206 491.088L871.716 493.027ZM1058.72 498.67C1073.48 496.036 1094.06 492.116 1114.61 486.207L1114.05 484.285C1093.61 490.164 1073.11 494.07 1058.37 496.701L1058.72 498.67ZM1114.61 486.207C1133.14 480.876 1161.78 471.213 1186.64 452.597L1185.44 450.996C1160.87 469.39 1132.52 478.973 1114.05 484.285L1114.61 486.207ZM1186.64 452.597C1216.5 430.247 1237.64 398.369 1244.05 360.169L1242.08 359.838C1235.76 397.485 1214.93 428.925 1185.44 450.996L1186.64 452.597ZM1244.05 360.169C1250 324.718 1241.72 293.368 1231.91 270.833L1230.08 271.63C1239.78 293.936 1247.95 324.884 1242.08 359.838L1244.05 360.169ZM1231.91 270.833C1213.08 227.524 1178.71 193.053 1148.6 172.192L1147.47 173.836C1177.35 194.546 1211.43 228.749 1230.08 271.63L1231.91 270.833ZM1148.6 172.192C1100.74 139.019 1038.12 130.721 1006.66 126.666L1006.41 128.649C1037.91 132.711 1100.05 140.978 1147.47 173.836L1148.6 172.192ZM1006.66 126.666C969.989 121.937 933.339 126.121 907.495 130.005L907.793 131.983C933.592 128.105 970.018 123.957 1006.41 128.649L1006.66 126.666ZM908.443 130.393C880.248 92.8805 835.288 74.827 793.077 72.8114L792.982 74.8091C834.74 76.8032 879.085 94.6614 906.845 131.595L908.443 130.393ZM793.077 72.8114C788.012 72.5695 782.735 72.5026 777.305 72.6439L777.357 74.6432C782.738 74.5032 787.965 74.5696 792.982 74.8091L793.077 72.8114ZM778.126 73.0358C759.569 48.7887 735.091 32.709 711.397 22.3442L710.595 24.1766C734.068 34.4444 758.238 50.3407 776.537 74.2513L778.126 73.0358Z" fill="black"/>
</svg>
