<svg width="851" height="606" viewBox="0 0 851 606" fill="none" xmlns="http://www.w3.org/2000/svg">
<path fill-rule="evenodd" clip-rule="evenodd" d="M-221.111 79.7503C-212.548 68.8037 -202.807 59.6042 -192.759 52.0645C-184.745 46.0509 -176.351 40.9189 -167.73 36.5622C-149.129 21.0498 -126.257 10.3848 -100.321 5.55036C-41.0524 -5.49697 28.4666 2.79836 84.025 38.9589C90.7747 43.352 97.2194 48.3317 103.23 53.8983C104.715 53.3753 106.169 52.8731 107.589 52.3911C137.537 42.2289 169.356 37.5877 202.619 41.8236C235.678 46.0336 264.283 58.264 288.911 73.5858C315.865 90.3539 339.935 113.836 355.361 144.166C366.772 146.658 376.793 149.757 384.889 152.606C401.581 158.481 417.218 165.796 431.046 173.293C433.999 174.109 436.942 175.008 439.872 175.992C466.408 184.898 488.38 199.468 506.03 216.265C514.389 215.419 522.844 214.963 531.301 214.882C554.781 206.346 580.651 200.219 605.616 199.095C631.091 197.949 655.887 203.069 677.97 213.214C683.563 213.714 689.044 214.485 694.369 215.512C716.603 219.797 746.457 230.196 770.032 255.913C775.352 261.716 780.04 267.998 784.044 274.654C790.788 277.159 820.494 288.623 837.973 322.563C861.307 367.874 842.917 408.503 831.262 425.324C820.896 440.283 809.029 448.514 805.539 450.904C800.488 454.363 796.163 456.636 793.85 457.798C789.148 460.16 785.264 461.637 783.717 462.214C780.208 463.524 777.276 464.395 776.136 464.73C762.999 468.594 748.759 471.529 733.645 472.894C715.042 475.634 698.454 475.507 684.168 474.346C661.168 492.617 635.133 502.656 616.37 508.021C610.63 509.662 604.848 511.006 599.048 512.064C588.739 521.761 578.955 527.484 574.355 530.092C564.653 535.593 555.057 539.575 547.581 542.354C532.4 547.998 516.307 552.216 503.234 555.013C492.973 557.208 474.563 560.762 457.843 560.495C443.084 560.259 429.76 558.233 417.804 555.177C406.798 555.382 383.461 555.746 364.184 552.462C354.464 550.807 344.66 548.242 334.991 544.577C331.929 546.933 327.817 550.081 323.621 553.122C312.722 561.021 296.22 572.002 274.693 580.027C239.319 593.214 201.406 593.937 174.982 592.642C146.273 591.235 118.323 586.666 96.6457 581.623C82.8231 578.407 69.0145 574.16 55.5378 569.137C18.4205 591.295 -20.981 598.78 -51.6174 601.799C-79.5021 604.547 -109.23 604.155 -130.867 603.87C-135.284 603.812 -139.364 603.758 -143.022 603.736C-176.466 603.538 -215.931 599.852 -248.503 596.81C-264.165 595.347 -278.234 594.033 -289.272 593.327C-290.527 593.247 -291.824 593.165 -293.158 593.081C-314.005 591.769 -344.196 589.869 -373.146 583.288C-391.005 579.228 -411.558 572.759 -432.01 561.707C-459.331 564.894 -493.261 568.613 -523.803 568.613C-524.325 568.613 -524.88 568.614 -525.468 568.614C-538.343 568.625 -566.692 568.647 -594.051 564.315C-608.132 562.085 -628.24 557.818 -648.127 548.229C-667.122 539.07 -700.399 517.82 -714.448 474.626C-719.976 457.629 -719.994 441.474 -719.999 437.345C-719.999 437.227 -719.999 437.119 -720 437.021C-720.019 429.003 -719.437 419.131 -717.567 408.59C-715.975 399.615 -712.095 381.936 -700.987 363.854C-689.673 345.436 -662.789 315.591 -617.68 312.192C-617.521 310.529 -617.326 308.853 -617.095 307.165C-611.442 265.866 -586.585 239.105 -569.73 225.27C-545.931 205.736 -516.97 193.985 -490.077 188.04C-468.348 174.797 -446.923 171.26 -439.473 170.051C-437.314 169.701 -435.159 169.392 -433.016 169.121C-427.624 163.69 -421.957 158.973 -416.194 154.886C-394.07 112.193 -355.021 90.0264 -321.554 80.8759C-286.821 71.3793 -251.267 73.1065 -221.111 79.7503ZM761.962 467.392C761.953 467.394 761.853 467.411 761.675 467.438C761.881 467.404 761.972 467.39 761.962 467.392Z" fill="#D9E6F9"/>
<path d="M-192.759 52.0645L-193.359 51.2647L-192.759 52.0645ZM-221.111 79.7503L-221.326 80.7269L-220.711 80.8624L-220.323 80.3665L-221.111 79.7503ZM-167.73 36.5622L-167.279 37.4547L-167.177 37.4033L-167.089 37.3302L-167.73 36.5622ZM-100.321 5.55036L-100.504 4.56729V4.56729L-100.321 5.55036ZM84.025 38.9589L83.4796 39.797L84.025 38.9589ZM103.23 53.8983L102.551 54.632L102.994 55.042L103.563 54.8415L103.23 53.8983ZM107.589 52.3911L107.268 51.4441V51.4441L107.589 52.3911ZM202.619 41.8236L202.493 42.8156L202.619 41.8236ZM288.911 73.5858L289.44 72.7367L288.911 73.5858ZM355.361 144.166L354.47 144.619L354.684 145.042L355.148 145.143L355.361 144.166ZM384.889 152.606L385.221 151.663L384.889 152.606ZM431.046 173.293L430.569 174.172L430.67 174.226L430.779 174.256L431.046 173.293ZM439.872 175.992L440.19 175.044L439.872 175.992ZM506.03 216.265L505.341 216.989L505.674 217.306L506.131 217.26L506.03 216.265ZM531.301 214.882L531.311 215.882L531.482 215.88L531.643 215.822L531.301 214.882ZM605.616 199.095L605.571 198.096L605.616 199.095ZM677.97 213.214L677.552 214.122L677.709 214.194L677.881 214.21L677.97 213.214ZM694.369 215.512L694.18 216.493L694.369 215.512ZM770.032 255.913L770.77 255.237L770.032 255.913ZM784.044 274.654L783.187 275.169L783.367 275.469L783.696 275.591L784.044 274.654ZM837.973 322.563L838.862 322.105L837.973 322.563ZM831.262 425.324L832.084 425.893L831.262 425.324ZM805.539 450.904L804.974 450.079L805.539 450.904ZM793.85 457.798L794.299 458.692L793.85 457.798ZM783.717 462.214L784.067 463.151H784.067L783.717 462.214ZM776.136 464.73L776.418 465.69L776.136 464.73ZM733.645 472.894L733.555 471.898L733.527 471.9L733.499 471.905L733.645 472.894ZM684.168 474.346L684.249 473.349L683.855 473.317L683.546 473.563L684.168 474.346ZM616.37 508.021L616.095 507.059L616.37 508.021ZM599.048 512.064L598.868 511.08L598.578 511.133L598.363 511.336L599.048 512.064ZM574.355 530.092L573.862 529.222L574.355 530.092ZM547.581 542.354L547.233 541.417L547.581 542.354ZM503.234 555.013L503.443 555.991L503.234 555.013ZM457.843 560.495L457.827 561.495L457.843 560.495ZM417.804 555.177L418.052 554.208L417.921 554.175L417.785 554.177L417.804 555.177ZM364.184 552.462L364.352 551.477L364.184 552.462ZM334.991 544.577L335.346 543.642L334.824 543.444L334.382 543.784L334.991 544.577ZM323.621 553.122L324.208 553.932L323.621 553.122ZM274.693 580.027L274.344 579.09L274.693 580.027ZM174.982 592.642L174.933 593.641L174.982 592.642ZM96.6457 581.623L96.8723 580.649L96.6457 581.623ZM55.5378 569.137L55.8871 568.2L55.4374 568.033L55.0253 568.279L55.5378 569.137ZM-51.6174 601.799L-51.5193 602.794L-51.6174 601.799ZM-130.867 603.87L-130.88 604.87L-130.867 603.87ZM-143.022 603.736L-143.016 602.736L-143.022 603.736ZM-248.503 596.81L-248.596 597.805L-248.503 596.81ZM-289.272 593.327L-289.209 592.329H-289.209L-289.272 593.327ZM-293.158 593.081L-293.221 594.079L-293.158 593.081ZM-373.146 583.288L-372.924 582.312L-373.146 583.288ZM-432.01 561.707L-431.535 560.827L-431.812 560.677L-432.126 560.714L-432.01 561.707ZM-525.468 568.614L-525.468 567.614H-525.468L-525.468 568.614ZM-594.051 564.315L-594.208 565.303L-594.051 564.315ZM-648.127 548.229L-647.692 547.329L-648.127 548.229ZM-714.448 474.626L-713.497 474.316H-713.497L-714.448 474.626ZM-719.999 437.345L-718.999 437.344L-719.999 437.345ZM-720 437.021L-721 437.024L-721 437.024L-720 437.021ZM-717.567 408.59L-716.583 408.764H-716.583L-717.567 408.59ZM-700.987 363.854L-701.839 363.331L-700.987 363.854ZM-617.68 312.192L-617.605 313.189L-616.765 313.126L-616.685 312.287L-617.68 312.192ZM-617.095 307.165L-618.086 307.029L-617.095 307.165ZM-569.73 225.27L-569.095 226.043L-569.73 225.27ZM-490.077 188.04L-489.862 189.016L-489.699 188.98L-489.557 188.894L-490.077 188.04ZM-439.473 170.051L-439.633 169.064L-439.473 170.051ZM-433.016 169.121L-432.89 170.113L-432.549 170.07L-432.306 169.825L-433.016 169.121ZM-416.194 154.886L-415.616 155.702L-415.418 155.561L-415.306 155.346L-416.194 154.886ZM-321.554 80.8759L-321.29 81.8405L-321.554 80.8759ZM761.962 467.392L761.737 466.418L761.735 466.418L761.962 467.392ZM761.675 467.438L761.512 466.451L761.823 468.427L761.675 467.438ZM-193.359 51.2647C-203.47 58.8521 -213.277 68.1121 -221.899 79.1342L-220.323 80.3665C-211.82 69.4954 -202.143 60.3563 -192.159 52.8644L-193.359 51.2647ZM-168.181 35.6697C-176.851 40.0511 -185.296 45.2137 -193.359 51.2647L-192.159 52.8644C-184.195 46.8882 -175.851 41.7866 -167.279 37.4547L-168.181 35.6697ZM-100.504 4.56729C-126.599 9.4313 -149.63 20.1659 -168.37 35.7942L-167.089 37.3302C-148.628 21.9337 -125.916 11.3384 -100.137 6.53343L-100.504 4.56729ZM84.5705 38.1208C28.7582 1.79497 -41.0325 -6.51791 -100.504 4.56729L-100.137 6.53343C-41.0724 -4.47602 28.175 3.80175 83.4796 39.797L84.5705 38.1208ZM103.91 53.1646C97.8556 47.5579 91.3657 42.5435 84.5705 38.1208L83.4796 39.797C90.1836 44.1604 96.5833 49.1054 102.551 54.632L103.91 53.1646ZM107.268 51.4441C105.844 51.9273 104.386 52.4308 102.898 52.9552L103.563 54.8415C105.043 54.3198 106.494 53.8189 107.911 53.3381L107.268 51.4441ZM202.745 40.8316C169.307 36.5733 137.333 41.2419 107.268 51.4441L107.911 53.3381C137.74 43.216 169.405 38.602 202.493 42.8156L202.745 40.8316ZM289.44 72.7367C264.718 57.3573 235.978 45.0637 202.745 40.8316L202.493 42.8156C235.378 47.0035 263.847 59.1708 288.383 74.4349L289.44 72.7367ZM356.252 143.713C340.729 113.192 316.519 89.583 289.44 72.7367L288.383 74.4349C315.211 91.1248 339.141 114.48 354.47 144.619L356.252 143.713ZM385.221 151.663C377.096 148.803 367.034 145.692 355.574 143.189L355.148 145.143C366.51 147.624 376.49 150.711 384.557 153.55L385.221 151.663ZM431.523 172.413C417.658 164.897 401.972 157.559 385.221 151.663L384.557 153.55C401.189 159.404 416.778 166.695 430.569 174.172L431.523 172.413ZM440.19 175.044C437.243 174.055 434.283 173.15 431.312 172.329L430.779 174.256C433.715 175.068 436.64 175.962 439.553 176.94L440.19 175.044ZM506.72 215.541C488.979 198.657 466.883 184.003 440.19 175.044L439.553 176.94C465.933 185.794 487.782 200.279 505.341 216.989L506.72 215.541ZM531.292 213.882C522.805 213.963 514.32 214.421 505.929 215.27L506.131 217.26C514.458 216.417 522.883 215.962 531.311 215.882L531.292 213.882ZM605.571 198.096C580.482 199.226 554.51 205.381 530.959 213.942L531.643 215.822C555.052 207.312 580.821 201.212 605.661 200.094L605.571 198.096ZM678.387 212.305C656.163 202.096 631.208 196.942 605.571 198.096L605.661 200.094C630.973 198.955 655.611 204.043 677.552 214.122L678.387 212.305ZM694.558 214.53C689.2 213.497 683.685 212.721 678.059 212.218L677.881 214.21C683.441 214.707 688.889 215.474 694.18 216.493L694.558 214.53ZM770.77 255.237C746.996 229.305 716.912 218.838 694.558 214.53L694.18 216.493C716.295 220.756 745.917 231.087 769.295 256.589L770.77 255.237ZM784.901 274.138C780.863 267.425 776.134 261.089 770.77 255.237L769.295 256.589C774.569 262.342 779.218 268.571 783.187 275.169L784.901 274.138ZM838.862 322.105C821.208 287.825 791.205 276.247 784.392 273.716L783.696 275.591C790.371 278.071 819.78 289.42 837.083 323.02L838.862 322.105ZM832.084 425.893C843.845 408.919 862.436 367.881 838.862 322.105L837.083 323.02C860.179 367.868 841.988 408.087 830.44 424.754L832.084 425.893ZM806.104 451.729C809.63 449.314 821.615 441.001 832.084 425.893L830.44 424.754C820.177 439.565 808.427 447.714 804.974 450.079L806.104 451.729ZM794.299 458.692C796.635 457.518 801.003 455.222 806.104 451.729L804.974 450.079C799.973 453.504 795.691 455.754 793.402 456.904L794.299 458.692ZM784.067 463.151C785.629 462.568 789.551 461.076 794.299 458.692L793.402 456.904C788.745 459.243 784.9 460.706 783.367 461.278L784.067 463.151ZM776.418 465.69C777.567 465.352 780.525 464.473 784.067 463.151L783.368 461.278C779.891 462.575 776.986 463.438 775.854 463.771L776.418 465.69ZM733.735 473.89C748.921 472.519 763.226 469.57 776.418 465.69L775.854 463.771C762.773 467.618 748.597 470.54 733.555 471.898L733.735 473.89ZM684.087 475.343C698.431 476.508 715.097 476.637 733.791 473.883L733.499 471.905C714.987 474.632 698.477 474.506 684.249 473.349L684.087 475.343ZM616.645 508.982C635.479 503.597 661.65 493.512 684.79 475.129L683.546 473.563C660.686 491.723 634.788 501.715 616.095 507.059L616.645 508.982ZM599.227 513.048C605.059 511.984 610.873 510.632 616.645 508.982L616.095 507.059C610.387 508.691 604.637 510.028 598.868 511.08L599.227 513.048ZM574.848 530.962C579.475 528.339 589.339 522.57 599.733 512.793L598.363 511.336C588.139 520.952 578.435 526.629 573.862 529.222L574.848 530.962ZM547.93 543.292C555.434 540.502 565.083 536.499 574.848 530.962L573.862 529.222C564.222 534.687 554.68 538.648 547.233 541.417L547.93 543.292ZM503.443 555.991C516.548 553.187 532.691 548.957 547.93 543.292L547.233 541.417C532.11 547.039 516.066 551.245 503.025 554.035L503.443 555.991ZM457.827 561.495C474.669 561.764 493.176 558.188 503.443 555.991L503.025 554.035C492.77 556.229 474.456 559.76 457.859 559.495L457.827 561.495ZM417.556 556.146C429.583 559.22 442.985 561.258 457.827 561.495L457.859 559.495C443.183 559.26 429.937 557.246 418.052 554.208L417.556 556.146ZM364.016 553.448C383.399 556.75 406.828 556.381 417.823 556.177L417.785 554.177C406.768 554.382 383.522 554.742 364.352 551.477L364.016 553.448ZM334.637 545.512C344.371 549.202 354.237 551.782 364.016 553.448L364.352 551.477C354.69 549.831 344.95 547.283 335.346 543.642L334.637 545.512ZM324.208 553.932C328.417 550.882 332.538 547.726 335.601 545.369L334.382 543.784C331.32 546.14 327.218 549.281 323.034 552.312L324.208 553.932ZM275.043 580.964C296.69 572.894 313.276 561.854 324.208 553.932L323.034 552.312C312.168 560.187 295.75 571.11 274.344 579.09L275.043 580.964ZM174.933 593.641C201.404 594.938 239.479 594.221 275.043 580.964L274.344 579.09C239.16 592.206 201.408 592.936 175.031 591.643L174.933 593.641ZM96.4191 582.597C118.145 587.652 146.155 592.231 174.933 593.641L175.031 591.643C146.39 590.24 118.5 585.681 96.8723 580.649L96.4191 582.597ZM55.1886 570.074C68.7014 575.11 82.551 579.37 96.4191 582.597L96.8723 580.649C83.0953 577.443 69.3276 573.209 55.8871 568.2L55.1886 570.074ZM-51.5193 602.794C-20.8134 599.768 18.7538 592.261 56.0504 569.996L55.0253 568.279C18.0872 590.33 -21.1487 597.792 -51.7155 600.804L-51.5193 602.794ZM-130.88 604.87C-109.251 605.155 -79.4683 605.548 -51.5193 602.794L-51.7155 600.804C-79.5359 603.545 -109.209 603.155 -130.854 602.87L-130.88 604.87ZM-143.028 604.736C-139.374 604.758 -135.298 604.812 -130.88 604.87L-130.854 602.87C-135.27 602.812 -139.353 602.758 -143.016 602.736L-143.028 604.736ZM-248.596 597.805C-216.035 600.847 -176.523 604.538 -143.028 604.736L-143.016 602.736C-176.408 602.538 -215.827 598.857 -248.41 595.814L-248.596 597.805ZM-289.336 594.325C-278.316 595.03 -264.264 596.342 -248.596 597.805L-248.41 595.814C-264.067 594.352 -278.152 593.036 -289.209 592.329L-289.336 594.325ZM-293.221 594.079C-291.886 594.163 -290.591 594.245 -289.336 594.325L-289.209 592.329C-290.464 592.249 -291.761 592.167 -293.095 592.083L-293.221 594.079ZM-373.368 584.263C-344.328 590.865 -314.06 592.768 -293.221 594.079L-293.095 592.083C-313.95 590.771 -344.064 588.873 -372.924 582.312L-373.368 584.263ZM-432.486 562.587C-411.932 573.693 -391.287 580.189 -373.368 584.263L-372.924 582.312C-390.723 578.266 -411.185 571.824 -431.535 560.827L-432.486 562.587ZM-523.803 569.613C-493.195 569.613 -459.211 565.887 -431.894 562.7L-432.126 560.714C-459.451 563.902 -493.326 567.613 -523.803 567.613V569.613ZM-525.467 569.614C-524.879 569.614 -524.324 569.613 -523.803 569.613V567.613C-524.325 567.613 -524.881 567.614 -525.468 567.614L-525.467 569.614ZM-594.208 565.303C-566.761 569.648 -538.34 569.625 -525.467 569.614L-525.468 567.614C-538.347 567.625 -566.623 567.645 -593.895 563.327L-594.208 565.303ZM-648.561 549.13C-628.549 558.78 -608.332 563.066 -594.208 565.303L-593.895 563.327C-607.932 561.105 -627.931 556.857 -647.692 547.329L-648.561 549.13ZM-715.399 474.935C-701.229 518.502 -667.669 539.917 -648.561 549.13L-647.692 547.329C-666.575 538.224 -699.569 517.139 -713.497 474.316L-715.399 474.935ZM-720.999 437.346C-720.994 441.495 -720.978 457.782 -715.399 474.935L-713.497 474.316C-718.974 457.477 -718.994 441.453 -718.999 437.344L-720.999 437.346ZM-721 437.024C-720.999 437.121 -720.999 437.228 -720.999 437.346L-718.999 437.344C-718.999 437.226 -718.999 437.117 -719 437.019L-721 437.024ZM-718.552 408.415C-720.434 419.025 -721.019 428.957 -721 437.024L-719 437.019C-719.019 429.049 -718.44 419.237 -716.583 408.764L-718.552 408.415ZM-701.839 363.331C-713.041 381.567 -716.95 399.386 -718.552 408.415L-716.583 408.764C-715 399.844 -711.148 382.306 -700.135 364.378L-701.839 363.331ZM-617.755 311.195C-663.306 314.627 -690.433 344.763 -701.839 363.331L-700.135 364.378C-688.912 346.109 -662.272 316.555 -617.605 313.189L-617.755 311.195ZM-618.086 307.029C-618.319 308.731 -618.515 310.42 -618.675 312.096L-616.685 312.287C-616.527 310.638 -616.334 308.975 -616.105 307.3L-618.086 307.029ZM-570.364 224.498C-587.321 238.416 -612.385 265.382 -618.086 307.029L-616.105 307.3C-610.499 266.35 -585.849 239.795 -569.095 226.043L-570.364 224.498ZM-490.293 187.064C-517.299 193.034 -546.415 204.84 -570.364 224.498L-569.095 226.043C-545.447 206.633 -516.641 194.937 -489.862 189.016L-490.293 187.064ZM-439.633 169.064C-447.112 170.277 -468.697 173.838 -490.598 187.186L-489.557 188.894C-468 175.755 -446.735 172.242 -439.313 171.039L-439.633 169.064ZM-433.141 168.129C-435.296 168.401 -437.462 168.712 -439.633 169.064L-439.313 171.039C-437.166 170.69 -435.023 170.383 -432.89 170.113L-433.141 168.129ZM-416.773 154.07C-422.58 158.188 -428.291 162.942 -433.725 168.416L-432.306 169.825C-426.958 164.438 -421.335 159.758 -415.616 155.702L-416.773 154.07ZM-321.818 79.9113C-355.47 89.1125 -394.794 111.417 -417.082 154.426L-415.306 155.346C-393.346 112.969 -354.572 90.9403 -321.29 81.8405L-321.818 79.9113ZM-220.896 78.7738C-251.168 72.1043 -286.892 70.3619 -321.818 79.9113L-321.29 81.8405C-286.75 72.3967 -251.366 74.1088 -221.326 80.7269L-220.896 78.7738ZM761.735 466.418C761.756 466.414 761.772 466.411 761.772 466.411C761.776 466.41 761.779 466.409 761.779 466.409C761.78 466.409 761.778 466.409 761.773 466.41C761.763 466.412 761.747 466.415 761.725 466.418C761.68 466.425 761.614 466.436 761.527 466.449L761.823 468.427C761.971 468.404 762.129 468.38 762.189 468.366L761.735 466.418ZM761.837 468.424C761.939 468.408 762.01 468.396 762.053 468.389C762.076 468.386 762.088 468.384 762.092 468.384C762.098 468.383 762.088 468.384 762.074 468.386C762.07 468.386 762.058 468.388 762.043 468.389C762.036 468.389 762.021 468.391 762.003 468.391C761.996 468.392 761.941 468.394 761.873 468.388C761.857 468.387 761.737 468.378 761.597 468.323C761.537 468.299 761.344 468.219 761.183 468.018C760.964 467.745 760.903 467.377 761.025 467.046C761.115 466.801 761.275 466.664 761.326 466.622C761.394 466.565 761.455 466.53 761.486 466.513C761.548 466.479 761.601 466.46 761.619 466.453C761.662 466.437 761.696 466.428 761.705 466.426C761.719 466.422 761.731 466.419 761.737 466.418L762.188 468.367C762.194 468.365 762.206 468.362 762.22 468.358C762.229 468.356 762.264 468.347 762.307 468.331C762.325 468.325 762.377 468.305 762.44 468.271C762.471 468.254 762.532 468.219 762.6 468.163C762.651 468.121 762.811 467.983 762.901 467.738C763.023 467.407 762.961 467.039 762.743 466.767C762.582 466.565 762.389 466.485 762.328 466.461C762.188 466.406 762.069 466.398 762.053 466.396C761.984 466.39 761.93 466.393 761.923 466.393C761.904 466.394 761.889 466.395 761.882 466.395C761.866 466.397 761.854 466.398 761.849 466.399C761.83 466.401 761.814 466.403 761.809 466.404C761.792 466.406 761.771 466.409 761.746 466.413C761.695 466.421 761.617 466.434 761.512 466.451L761.837 468.424Z" fill="black"/>
</svg>
