<svg width="430" height="742" viewBox="0 0 430 742" fill="none" xmlns="http://www.w3.org/2000/svg">
<rect x="2.5" y="2.5" width="425" height="737" rx="27.5" fill="#B5CBF9" stroke="#53265F" stroke-width="5"/>
<g clip-path="url(#clip0_373_5318)">
<path fill-rule="evenodd" clip-rule="evenodd" d="M46.2317 126.675C45.8123 126.286 45.4019 125.891 45 125.49V616.718C45.4019 616.316 45.8123 615.921 46.2317 615.532C60.4751 602.311 80.1978 601.28 91.1608 613.091C97.3542 619.764 99.5648 629.633 97.5905 639.247C107.324 637.993 117.002 640.932 123.196 647.604C133.824 659.055 131.803 677.819 118.691 691H311.083C297.97 677.819 295.949 659.055 306.578 647.604C312.771 640.932 322.449 637.993 332.183 639.247C330.209 629.633 332.419 619.764 338.613 613.091C349.576 601.28 369.298 602.311 383.542 615.532C384.04 615.995 384.526 616.466 385 616.945V125.262C384.526 125.741 384.04 126.212 383.542 126.675C369.298 139.896 349.576 140.927 338.613 129.116C332.419 122.443 330.209 112.574 332.183 102.96C322.449 104.214 312.771 101.275 306.578 94.603C295.893 83.0921 297.992 64.1914 311.29 51H118.484C131.782 64.1914 133.88 83.0921 123.196 94.603C117.002 101.275 107.324 104.214 97.5905 102.96C99.5648 112.574 97.3542 122.443 91.1608 129.116C80.1978 140.927 60.4751 139.896 46.2317 126.675Z" fill="#FED2F5"/>
<path d="M331 371C331 435.065 279.065 487 215 487C150.935 487 99 435.065 99 371C99 306.935 150.935 255 215 255C279.065 255 331 306.935 331 371Z" fill="#F5F5F5" stroke="#53265F" stroke-width="6"/>
<path d="M215 428.733L209.593 423.266L209.589 423.261C196.145 409.719 185.211 398.685 177.604 388.345C170.036 378.06 166 368.772 166 358.771C166 342.278 177.526 330 191.6 330C199.618 330 207.461 334.164 212.626 340.849L215 343.922L217.374 340.849C222.539 334.164 230.382 330 238.4 330C252.474 330 264 342.278 264 358.771C264 368.772 259.964 378.06 252.396 388.345C244.789 398.685 233.855 409.719 220.411 423.261L220.407 423.266L215 428.733Z" fill="#E95CB0" stroke="#53265F" stroke-width="6"/>
<path d="M117.314 308.456C9.70279 286.763 -69.2276 282.86 -74.2629 301.652C-79.6497 321.756 1.19062 361.651 117.314 398.859C144.189 407.47 172.954 415.938 202.977 423.982C231.872 431.725 259.953 438.545 286.609 444.378C407.323 470.791 498.805 476.94 504.239 456.662C509.345 437.604 436.967 400.762 330.501 365.283" stroke="#53265F" stroke-width="6"/>
<path d="M292.001 285.074C389.728 236.677 464.373 212.749 474.06 229.527C486.875 251.723 381.155 336.752 237.928 419.444C94.7011 502.136 -31.7958 551.178 -44.6107 528.982C-54.561 511.748 6.95346 456.631 102.001 394.141" stroke="#53265F" stroke-width="6"/>
<path d="M243.5 97.5C288.7 103.1 290 70.8333 285 54H125C148.6 87.6 119.833 104 102.5 108C102.5 145.2 64.5 139.833 45.5 132.5V217.5C47.3333 226.167 55.6 243.5 74 243.5C92.4 243.5 102 231.167 104.5 225C113.167 226.333 126.045 227.5 131.5 217.5C138.864 204 126 197 121.5 195.5C122.833 190.833 123.9 180.9 117.5 178.5C125.106 174.697 135.982 165.439 134.332 153C140.851 157.972 157.51 164.031 172.249 148.762C176.73 143.864 182.729 132.45 177.42 120.5C181.947 122.167 192.3 123.6 197.5 116C207.5 122.4 220.333 121.667 225.5 120.5C242 112 242.167 102 243.5 97.5Z" fill="#D9E6F9"/>
<path d="M285 54C290 70.8333 288.7 103.1 243.5 97.5M243.5 97.5C243.5 92.3333 242.1 81.7 236.5 80.5M243.5 97.5C242.167 102 242 112 225.5 120.5C220.333 121.667 207.5 122.4 197.5 116C192.3 123.6 181.947 122.167 177.42 120.5M45.5 217.5C47.3333 226.167 55.6 243.5 74 243.5C92.4 243.5 102 231.167 104.5 225M104.5 225C106.167 219.833 107.4 208.1 99 202.5M104.5 225C113.167 226.333 126.045 227.5 131.5 217.5C138.864 204 126 197 121.5 195.5C122.833 190.833 123.9 180.9 117.5 178.5M117.5 178.5C112.667 180.167 102.6 181.7 101 174.5M117.5 178.5C125.106 174.697 135.982 165.439 134.332 153M121.5 197C119.5 199.833 114.8 204.5 112 200.5M127 138.5C131.539 143.672 133.74 148.541 134.332 153M134.332 153C140.851 157.972 157.51 164.031 172.249 148.762M172.5 148.5C172.416 148.588 172.333 148.675 172.249 148.762M172.249 148.762C176.73 143.864 182.729 132.45 177.42 120.5M172.5 113C174.711 115.487 176.312 118.005 177.42 120.5" stroke="#53265F" stroke-width="6"/>
<path d="M185.494 644C140.294 638.4 138.994 670.667 143.994 687.5H303.994C280.394 653.9 309.161 637.5 326.494 633.5C326.494 596.3 364.494 601.667 383.494 609V524C381.661 515.333 373.394 498 354.994 498C336.594 498 326.994 510.333 324.494 516.5C315.827 515.167 302.949 514 297.494 524C290.131 537.5 302.994 544.5 307.494 546C306.161 550.667 305.094 560.6 311.494 563C303.888 566.803 293.012 576.061 294.662 588.5C288.143 583.528 271.484 577.469 256.745 592.738C252.264 597.636 246.265 609.05 251.574 621C247.047 619.333 236.694 617.9 231.494 625.5C221.494 619.1 208.661 619.833 203.494 621C186.994 629.5 186.827 639.5 185.494 644Z" fill="#D9E6F9"/>
<path d="M143.994 687.5C138.994 670.667 140.294 638.4 185.494 644M185.494 644C185.494 649.167 186.894 659.8 192.494 661M185.494 644C186.827 639.5 186.994 629.5 203.494 621C208.661 619.833 221.494 619.1 231.494 625.5C236.694 617.9 247.047 619.333 251.574 621M383.494 524C381.661 515.333 373.394 498 354.994 498C336.594 498 326.994 510.333 324.494 516.5M324.494 516.5C322.827 521.667 321.594 533.4 329.994 539M324.494 516.5C315.827 515.167 302.949 514 297.494 524C290.131 537.5 302.994 544.5 307.494 546C306.161 550.667 305.094 560.6 311.494 563M311.494 563C316.327 561.333 326.394 559.8 327.994 567M311.494 563C303.888 566.803 293.012 576.061 294.662 588.5M307.494 544.5C309.494 541.667 314.194 537 316.994 541M301.994 603C297.455 597.828 295.254 592.959 294.662 588.5M294.662 588.5C288.143 583.528 271.484 577.469 256.745 592.738M256.494 593C256.578 592.912 256.661 592.825 256.745 592.738M256.745 592.738C252.264 597.636 246.265 609.05 251.574 621M256.494 628.5C254.283 626.013 252.682 623.495 251.574 621" stroke="#53265F" stroke-width="6"/>
<path d="M269.112 201.998L274.022 201.814L271.615 197.53L217.115 100.53L214.5 95.8755L211.885 100.53L157.385 197.53L154.991 201.791L159.873 201.997C168.352 202.356 174.181 204.313 178.206 206.972C182.204 209.613 184.624 213.08 186.077 216.833C188.836 223.957 188.095 231.937 187.622 237.029C187.582 237.453 187.545 237.856 187.511 238.238L187.225 241.5H190.5H233H236.332L235.984 238.186C234.493 224.03 239.717 215.29 246.641 209.906C253.75 204.379 262.889 202.231 269.112 201.998Z" fill="#FFE599" stroke="#53265F" stroke-width="6"/>
<path d="M157.5 247.037C157.5 247.037 171 234 214 234C257 234 270.5 247.037 270.5 247.037C270.5 247.037 275 250.574 275 256.537C275 262.5 270.5 266.037 270.5 266.037C270.5 266.037 247.5 252.5 214 252.5C180.5 252.5 157.5 267.037 157.5 267.037C157.5 267.037 152 262.074 152 256.537C152 251 157.5 247.037 157.5 247.037Z" fill="#FFE599"/>
<path d="M154.374 243.124C154.35 243.145 154.327 243.165 154.305 243.185C154.261 243.219 154.212 243.257 154.158 243.299C153.943 243.47 153.655 243.707 153.32 244.005C152.656 244.595 151.772 245.454 150.878 246.547C149.166 248.643 147 252.119 147 256.537C147 260.853 149.083 264.522 150.676 266.762C151.521 267.95 152.359 268.916 152.987 269.589C153.304 269.928 153.574 270.199 153.775 270.394C153.875 270.492 153.958 270.571 154.022 270.631C154.053 270.66 154.08 270.685 154.102 270.705L154.13 270.731L154.141 270.741L154.146 270.745L154.148 270.747C154.149 270.748 154.15 270.749 157.5 267.037L154.15 270.749L156.966 273.29L160.165 271.268L160.166 271.267L160.167 271.266L160.169 271.265L160.171 271.264L160.194 271.25C160.224 271.231 160.275 271.2 160.348 271.156C160.493 271.068 160.724 270.931 161.038 270.752C161.665 270.393 162.622 269.864 163.884 269.222C166.409 267.938 170.147 266.204 174.905 264.464C184.431 260.981 197.967 257.5 214 257.5C230.083 257.5 243.656 260.751 253.201 264.002C257.968 265.625 261.713 267.243 264.243 268.441C265.507 269.039 266.465 269.532 267.094 269.868C267.408 270.035 267.64 270.163 267.786 270.245C267.859 270.286 267.911 270.316 267.94 270.333L267.964 270.346L267.966 270.348L267.968 270.349L267.969 270.349L267.97 270.35L270.906 272.078L273.59 269.968L270.5 266.037C273.59 269.968 273.591 269.967 273.593 269.966L273.596 269.963L273.603 269.958L273.618 269.945L273.654 269.917C273.68 269.896 273.71 269.871 273.744 269.843C273.813 269.786 273.898 269.713 273.998 269.626C274.197 269.451 274.454 269.213 274.751 268.915C275.34 268.322 276.103 267.467 276.865 266.364C278.38 264.169 280 260.818 280 256.537C280 252.256 278.38 248.905 276.865 246.71C276.103 245.607 275.34 244.753 274.751 244.16C274.454 243.861 274.197 243.624 273.998 243.448C273.918 243.378 273.847 243.317 273.786 243.266C273.74 243.224 273.687 243.177 273.626 243.124C273.453 242.973 273.222 242.779 272.927 242.547C272.339 242.084 271.503 241.475 270.386 240.771C268.153 239.362 264.812 237.58 260.12 235.833C250.734 232.337 236.007 229 214 229C191.993 229 177.266 232.337 167.88 235.833C163.188 237.58 159.847 239.362 157.614 240.771C156.497 241.475 155.661 242.084 155.073 242.547C154.778 242.779 154.547 242.973 154.374 243.124Z" stroke="#53265F" stroke-width="10"/>
<path d="M158.888 540.039L153.978 540.223L156.385 544.507L210.885 641.507L213.5 646.162L216.115 641.507L270.615 544.507L273.009 540.246L268.127 540.04C259.648 539.682 253.819 537.724 249.794 535.065C245.796 532.424 243.376 528.957 241.923 525.204C239.164 518.081 239.905 510.1 240.378 505.008C240.418 504.584 240.455 504.181 240.489 503.799L240.775 500.537H237.5H195H191.668L192.016 503.851C193.507 518.007 188.283 526.748 181.359 532.131C174.25 537.658 165.111 539.806 158.888 540.039Z" fill="#FFE599" stroke="#53265F" stroke-width="6"/>
<path d="M270.5 495C270.5 495 257 508.037 214 508.037C171 508.037 157.5 495 157.5 495C157.5 495 153 491.463 153 485.5C153 479.537 157.5 476 157.5 476C157.5 476 180.5 489.537 214 489.537C247.5 489.537 270.5 475 270.5 475C270.5 475 276 479.963 276 485.5C276 491.037 270.5 495 270.5 495Z" fill="#FFE599"/>
<path d="M273.626 498.913C273.65 498.892 273.673 498.872 273.695 498.853C273.739 498.818 273.788 498.78 273.842 498.738C274.057 498.567 274.345 498.33 274.68 498.032C275.344 497.442 276.228 496.583 277.122 495.49C278.834 493.394 281 489.918 281 485.5C281 481.184 278.917 477.515 277.324 475.275C276.479 474.087 275.641 473.121 275.013 472.448C274.696 472.109 274.426 471.838 274.225 471.643C274.125 471.545 274.042 471.466 273.978 471.406C273.947 471.377 273.92 471.352 273.898 471.332L273.87 471.306L273.859 471.296L273.854 471.292L273.852 471.29C273.851 471.289 273.85 471.288 270.5 475L273.85 471.288L271.034 468.747L267.835 470.769L267.834 470.77L267.833 470.771L267.831 470.772L267.829 470.773L267.806 470.788C267.776 470.806 267.725 470.837 267.652 470.881C267.507 470.969 267.276 471.106 266.962 471.285C266.335 471.645 265.378 472.173 264.116 472.815C261.591 474.099 257.853 475.833 253.095 477.573C243.569 481.057 230.033 484.537 214 484.537C197.917 484.537 184.344 481.286 174.799 478.035C170.032 476.412 166.287 474.794 163.757 473.596C162.493 472.998 161.535 472.505 160.906 472.169C160.592 472.002 160.36 471.874 160.214 471.792C160.141 471.751 160.089 471.722 160.06 471.704L160.036 471.691L160.034 471.69L160.032 471.688L160.031 471.688L160.03 471.687L157.094 469.959L154.41 472.069L157.5 476C154.41 472.069 154.409 472.07 154.407 472.072L154.404 472.074L154.397 472.08L154.382 472.092L154.346 472.12C154.32 472.141 154.29 472.166 154.256 472.194C154.187 472.251 154.102 472.324 154.002 472.411C153.803 472.586 153.546 472.824 153.249 473.122C152.66 473.716 151.897 474.57 151.135 475.673C149.62 477.868 148 481.219 148 485.5C148 489.781 149.62 493.132 151.135 495.327C151.897 496.43 152.66 497.284 153.249 497.878C153.546 498.176 153.803 498.414 154.002 498.589C154.082 498.659 154.153 498.72 154.214 498.771C154.26 498.813 154.313 498.86 154.374 498.913C154.547 499.064 154.778 499.259 155.073 499.49C155.661 499.953 156.497 500.562 157.614 501.266C159.847 502.675 163.188 504.457 167.88 506.204C177.266 509.7 191.993 513.037 214 513.037C236.007 513.037 250.734 509.7 260.12 506.204C264.812 504.457 268.153 502.675 270.386 501.266C271.503 500.562 272.339 499.953 272.927 499.49C273.222 499.259 273.453 499.064 273.626 498.913Z" stroke="#53265F" stroke-width="10"/>
<path d="M319.251 209.75C319.046 208.192 318.631 206.771 318.05 205.634C317.468 204.497 316.742 203.685 315.946 203.283L301.836 196.164C301.595 196.031 301.383 195.747 301.232 195.356C301.082 194.966 301 194.49 301 194C301 193.51 301.082 193.034 301.232 192.644C301.383 192.253 301.595 191.969 301.836 191.836L315.946 184.712C316.742 184.311 317.468 183.5 318.049 182.363C318.63 181.227 319.045 179.807 319.251 178.25L322.89 150.644C322.957 150.171 323.102 149.754 323.302 149.457C323.502 149.161 323.746 149 323.997 149C324.248 149 324.492 149.161 324.692 149.457C324.892 149.754 325.037 150.171 325.104 150.644L328.741 178.25C328.946 179.808 329.361 181.229 329.942 182.366C330.523 183.503 331.25 184.315 332.046 184.717L346.156 191.831C346.398 191.962 346.612 192.245 346.765 192.637C346.917 193.029 347 193.508 347 194C347 194.492 346.917 194.971 346.765 195.363C346.612 195.755 346.398 196.038 346.156 196.169L332.046 203.283C331.25 203.685 330.523 204.497 329.942 205.634C329.361 206.771 328.946 208.192 328.741 209.75L325.102 237.356C325.035 237.829 324.89 238.246 324.69 238.543C324.49 238.839 324.246 239 323.995 239C323.744 239 323.5 238.839 323.3 238.543C323.1 238.246 322.955 237.829 322.887 237.356L319.251 209.75Z" fill="#53265F"/>
<path d="M108.251 564.75C108.046 563.192 107.631 561.771 107.05 560.634C106.468 559.497 105.742 558.685 104.946 558.283L90.836 551.164C90.5952 551.031 90.3834 550.747 90.2325 550.356C90.0816 549.966 90 549.49 90 549C90 548.51 90.0816 548.034 90.2325 547.644C90.3834 547.253 90.5952 546.969 90.836 546.836L104.946 539.712C105.742 539.311 106.468 538.5 107.049 537.363C107.63 536.227 108.045 534.807 108.251 533.25L111.89 505.644C111.957 505.171 112.102 504.754 112.302 504.457C112.502 504.161 112.746 504 112.997 504C113.248 504 113.492 504.161 113.692 504.457C113.892 504.754 114.037 505.171 114.104 505.644L117.741 533.25C117.946 534.808 118.361 536.229 118.942 537.366C119.523 538.503 120.25 539.315 121.046 539.717L135.156 546.831C135.398 546.962 135.612 547.245 135.765 547.637C135.917 548.029 136 548.508 136 549C136 549.492 135.917 549.971 135.765 550.363C135.612 550.755 135.398 551.038 135.156 551.169L121.046 558.283C120.25 558.685 119.523 559.497 118.942 560.634C118.361 561.771 117.946 563.192 117.741 564.75L114.102 592.356C114.035 592.829 113.89 593.246 113.69 593.543C113.49 593.839 113.246 594 112.995 594C112.744 594 112.5 593.839 112.3 593.543C112.1 593.246 111.955 592.829 111.887 592.356L108.251 564.75Z" fill="#53265F"/>
</g>
<mask id="path-19-inside-1_373_5318" fill="white">
<path fill-rule="evenodd" clip-rule="evenodd" d="M46.2317 126.675C45.8123 126.286 45.4019 125.891 45 125.49V616.718C45.4019 616.316 45.8123 615.921 46.2317 615.532C60.4751 602.311 80.1978 601.28 91.1608 613.091C97.3542 619.764 99.5648 629.633 97.5905 639.247C107.324 637.993 117.002 640.932 123.196 647.604C133.824 659.055 131.803 677.819 118.691 691H311.083C297.97 677.819 295.949 659.055 306.578 647.604C312.771 640.932 322.449 637.993 332.183 639.247C330.209 629.633 332.419 619.764 338.613 613.091C349.576 601.28 369.298 602.311 383.542 615.532C384.04 615.995 384.526 616.466 385 616.945V125.262C384.526 125.741 384.04 126.212 383.542 126.675C369.298 139.896 349.576 140.927 338.613 129.116C332.419 122.443 330.209 112.574 332.183 102.96C322.449 104.214 312.771 101.275 306.578 94.603C295.893 83.0921 297.992 64.1914 311.29 51H118.484C131.782 64.1914 133.88 83.0921 123.196 94.603C117.002 101.275 107.324 104.214 97.5905 102.96C99.5648 112.574 97.3542 122.443 91.1608 129.116C80.1978 140.927 60.4751 139.896 46.2317 126.675Z"/>
</mask>
<path d="M45 125.49L49.2387 121.243L39 111.023V125.49H45ZM46.2317 126.675L50.3136 122.277H50.3135L46.2317 126.675ZM45 616.718H39V631.184L49.2388 620.964L45 616.718ZM46.2317 615.532L42.1499 611.134L42.1498 611.135L46.2317 615.532ZM91.1608 613.091L95.5584 609.009H95.5584L91.1608 613.091ZM97.5905 639.247L91.7132 638.04L90.0227 646.271L98.3571 645.198L97.5905 639.247ZM123.196 647.604L127.593 643.522H127.593L123.196 647.604ZM118.691 691L114.437 686.768L104.259 697H118.691V691ZM311.083 691V697H325.514L315.336 686.768L311.083 691ZM306.578 647.604L302.18 643.522H302.18L306.578 647.604ZM332.183 639.247L331.416 645.198L339.751 646.271L338.06 638.04L332.183 639.247ZM338.613 613.091L343.01 617.173L338.613 613.091ZM383.542 615.532L379.46 619.93H379.46L383.542 615.532ZM385 616.945L380.732 621.163L391 631.552V616.945H385ZM385 125.262H391V110.654L380.732 121.044L385 125.262ZM383.542 126.675L387.624 131.073V131.073L383.542 126.675ZM338.613 129.116L343.01 125.034V125.034L338.613 129.116ZM332.183 102.96L338.06 104.167L339.751 95.9356L331.416 97.0092L332.183 102.96ZM306.578 94.603L302.18 98.6848V98.6848L306.578 94.603ZM311.29 51L315.515 55.2597L325.858 45H311.29V51ZM118.484 51V45H103.915L114.258 55.2597L118.484 51ZM123.196 94.603L127.593 98.6848L123.196 94.603ZM97.5905 102.96L98.3571 97.0092L90.0227 95.9356L91.7132 104.167L97.5905 102.96ZM91.1608 129.116L95.5584 133.198L91.1608 129.116ZM40.7613 129.736C41.2146 130.189 41.6774 130.634 42.1499 131.073L50.3135 122.277C49.9473 121.937 49.5891 121.593 49.2387 121.243L40.7613 129.736ZM51 616.718V125.49H39V616.718H51ZM49.2388 620.964C49.5891 620.614 49.9473 620.27 50.3137 619.929L42.1498 611.135C41.6774 611.573 41.2146 612.018 40.7612 612.471L49.2388 620.964ZM50.3136 619.93C62.9149 608.233 78.7212 608.509 86.7633 617.173L95.5584 609.009C81.6744 594.051 58.0353 596.39 42.1499 611.134L50.3136 619.93ZM86.7633 617.173C91.4175 622.187 93.3678 629.983 91.7132 638.04L103.468 640.454C105.762 629.284 103.291 617.34 95.5584 609.009L86.7633 617.173ZM98.3571 645.198C106.515 644.147 114.144 646.672 118.798 651.686L127.593 643.522C119.861 635.192 108.134 631.839 96.8239 633.296L98.3571 645.198ZM118.798 651.686C126.607 660.099 125.991 675.153 114.437 686.768L122.945 695.232C137.615 680.484 141.041 658.01 127.593 643.522L118.798 651.686ZM311.083 685H118.691V697H311.083V685ZM302.18 643.522C288.732 658.01 292.158 680.484 306.829 695.232L315.336 686.768C303.782 675.153 303.166 660.099 310.975 651.686L302.18 643.522ZM332.949 633.296C321.639 631.839 309.913 635.192 302.18 643.522L310.975 651.686C315.63 646.672 323.259 644.147 331.416 645.198L332.949 633.296ZM334.215 609.009C326.482 617.34 324.012 629.284 326.306 640.454L338.06 638.04C336.406 629.983 338.356 622.187 343.01 617.173L334.215 609.009ZM387.624 611.134C371.738 596.39 348.099 594.051 334.215 609.009L343.01 617.173C351.052 608.509 366.859 608.233 379.46 619.93L387.624 611.134ZM389.268 612.728C388.733 612.187 388.185 611.656 387.624 611.134L379.46 619.93C379.895 620.334 380.319 620.745 380.732 621.163L389.268 612.728ZM379 125.262V616.945H391V125.262H379ZM387.624 131.073C388.185 130.551 388.733 130.02 389.268 129.479L380.732 121.044C380.319 121.462 379.895 121.873 379.46 122.277L387.624 131.073ZM334.215 133.198C348.099 148.156 371.738 145.817 387.624 131.073L379.46 122.277C366.859 133.974 351.052 133.698 343.01 125.034L334.215 133.198ZM326.306 101.753C324.012 112.923 326.482 124.867 334.215 133.198L343.01 125.034C338.356 120.02 336.406 112.224 338.06 104.167L326.306 101.753ZM302.18 98.6848C309.913 107.016 321.639 110.368 332.949 108.911L331.416 97.0092C323.259 98.06 315.63 95.5354 310.975 90.5212L302.18 98.6848ZM307.064 46.7403C292.194 61.4913 288.66 84.1184 302.18 98.6848L310.975 90.5212C303.127 82.0659 303.789 66.8915 315.515 55.2597L307.064 46.7403ZM118.484 57H311.29V45H118.484V57ZM127.593 98.6848C141.114 84.1184 137.58 61.4913 122.709 46.7403L114.258 55.2597C125.984 66.8915 126.646 82.0659 118.798 90.5212L127.593 98.6848ZM96.824 108.911C108.134 110.368 119.861 107.016 127.593 98.6848L118.798 90.5212C114.144 95.5354 106.515 98.06 98.3571 97.0092L96.824 108.911ZM95.5584 133.198C103.291 124.867 105.762 112.923 103.468 101.753L91.7132 104.167C93.3678 112.224 91.4175 120.02 86.7633 125.034L95.5584 133.198ZM42.1499 131.073C58.0353 145.817 81.6744 148.156 95.5584 133.198L86.7633 125.034C78.7213 133.698 62.9149 133.974 50.3136 122.277L42.1499 131.073Z" fill="#53265F" mask="url(#path-19-inside-1_373_5318)"/>
<path d="M345.874 89.8414L345.893 86.294L345.894 86.2881C345.936 74.5473 345.982 65.1104 347.152 57.4252C348.312 49.8058 350.527 44.2977 354.625 40.2001C361.412 33.4128 371.004 33.2469 376.581 38.8239C379.779 42.0218 381.287 46.8628 380.668 51.69L380.174 55.5414L384.025 55.0474C388.852 54.4281 393.693 55.9358 396.891 59.1337C402.468 64.7107 402.302 74.303 395.515 81.0903C391.417 85.188 385.909 87.403 378.29 88.5628C370.605 89.7326 361.168 89.7785 349.427 89.8214L349.421 89.8215L345.874 89.8414Z" fill="#E95CB0" stroke="#53265F" stroke-width="6"/>
<path d="M345.874 652.582L345.893 656.13L345.894 656.136C345.936 667.876 345.982 677.313 347.152 684.999C348.312 692.618 350.527 698.126 354.625 702.224C361.412 709.011 371.004 709.177 376.581 703.6C379.779 700.402 381.287 695.561 380.668 690.734L380.174 686.882L384.025 687.376C388.852 687.996 393.693 686.488 396.891 683.29C402.468 677.713 402.302 668.121 395.515 661.333C391.417 657.236 385.909 655.021 378.29 653.861C370.605 652.691 361.168 652.645 349.427 652.602L349.421 652.602L345.874 652.582Z" fill="#E95CB0" stroke="#53265F" stroke-width="6"/>
<path d="M84.5502 89.5503L84.5303 86.003L84.5303 85.9971C84.4874 74.2563 84.4415 64.8194 83.2717 57.1342C82.1119 49.5148 79.8969 44.0067 75.7992 39.909C69.0119 33.1217 59.4195 32.9559 53.8426 38.5329C50.6447 41.7308 49.137 46.5718 49.7562 51.399L50.2503 55.2504L46.3989 54.7563C41.5717 54.1371 36.7307 55.6448 33.5328 58.8427C27.9558 64.4196 28.1216 74.012 34.9089 80.7993C39.0066 84.897 44.5147 87.112 52.134 88.2718C59.8193 89.4416 69.2562 89.4875 80.997 89.5304L81.0029 89.5305L84.5502 89.5503Z" fill="#E95CB0" stroke="#53265F" stroke-width="6"/>
<path d="M84.5502 652.873L84.5303 656.421L84.5303 656.427C84.4874 668.167 84.4415 677.604 83.2717 685.29C82.1119 692.909 79.8969 698.417 75.7992 702.515C69.0119 709.302 59.4195 709.468 53.8426 703.891C50.6447 700.693 49.137 695.852 49.7562 691.025L50.2503 687.173L46.3989 687.667C41.5717 688.287 36.7307 686.779 33.5328 683.581C27.9558 678.004 28.1216 668.412 34.9089 661.625C39.0066 657.527 44.5147 655.312 52.134 654.152C59.8193 652.982 69.2562 652.936 80.997 652.893L81.0029 652.893L84.5502 652.873Z" fill="#E95CB0" stroke="#53265F" stroke-width="6"/>
<defs>
<clipPath id="clip0_373_5318">
<rect width="340" height="640" fill="white" transform="translate(45 51)"/>
</clipPath>
</defs>
</svg>
