<svg width="866" height="606" viewBox="0 0 866 606" fill="none" xmlns="http://www.w3.org/2000/svg">
<path fill-rule="evenodd" clip-rule="evenodd" d="M-206.111 79.7503C-197.548 68.8037 -187.807 59.6042 -177.759 52.0645C-169.745 46.0509 -161.351 40.9189 -152.73 36.5622C-134.129 21.0498 -111.257 10.3848 -85.3207 5.55036C-26.0524 -5.49697 43.4666 2.79836 99.025 38.9589C105.775 43.352 112.219 48.3317 118.23 53.8983C119.715 53.3753 121.169 52.8731 122.589 52.3911C152.537 42.2289 184.356 37.5877 217.619 41.8236C250.678 46.0336 279.283 58.264 303.911 73.5858C330.865 90.3539 354.935 113.836 370.361 144.166C381.772 146.658 391.793 149.757 399.889 152.606C416.581 158.481 432.218 165.796 446.046 173.293C448.999 174.109 451.942 175.008 454.872 175.992C481.408 184.898 503.38 199.468 521.03 216.265C529.389 215.419 537.844 214.963 546.301 214.882C569.781 206.346 595.651 200.219 620.616 199.095C646.091 197.949 670.887 203.069 692.97 213.214C698.563 213.714 704.044 214.485 709.369 215.512C731.603 219.797 761.457 230.196 785.032 255.913C790.352 261.716 795.04 267.998 799.044 274.654C805.788 277.159 835.494 288.623 852.973 322.563C876.307 367.874 857.917 408.503 846.262 425.324C835.896 440.283 824.029 448.514 820.539 450.904C815.488 454.363 811.163 456.636 808.85 457.798C804.148 460.16 800.264 461.637 798.717 462.214C795.208 463.524 792.276 464.395 791.136 464.73C777.999 468.594 763.759 471.529 748.645 472.894C730.042 475.634 713.454 475.507 699.168 474.346C676.168 492.617 650.133 502.656 631.37 508.021C625.63 509.662 619.848 511.006 614.048 512.064C603.739 521.761 593.955 527.484 589.355 530.092C579.653 535.593 570.057 539.575 562.581 542.354C547.4 547.998 531.307 552.216 518.234 555.013C507.973 557.208 489.563 560.762 472.843 560.495C458.084 560.259 444.76 558.233 432.804 555.177C421.798 555.382 398.461 555.746 379.184 552.462C369.464 550.807 359.66 548.242 349.991 544.577C346.929 546.933 342.817 550.081 338.621 553.122C327.722 561.021 311.22 572.002 289.693 580.027C254.319 593.214 216.406 593.937 189.982 592.642C161.273 591.235 133.323 586.666 111.646 581.623C97.8231 578.407 84.0145 574.16 70.5378 569.137C33.4205 591.295 -5.98102 598.78 -36.6174 601.799C-64.5021 604.547 -94.23 604.155 -115.867 603.87C-120.284 603.812 -124.364 603.758 -128.022 603.736C-161.466 603.538 -200.931 599.852 -233.503 596.81C-249.165 595.347 -263.234 594.033 -274.272 593.327C-275.527 593.247 -276.824 593.165 -278.158 593.081C-299.005 591.769 -329.196 589.869 -358.146 583.288C-376.005 579.228 -396.558 572.759 -417.01 561.707C-444.331 564.894 -478.261 568.613 -508.803 568.613C-509.325 568.613 -509.88 568.614 -510.468 568.614C-523.343 568.625 -551.692 568.647 -579.051 564.315C-593.132 562.085 -613.24 557.818 -633.127 548.229C-652.122 539.07 -685.399 517.82 -699.448 474.626C-704.976 457.629 -704.994 441.474 -704.999 437.345C-704.999 437.227 -704.999 437.119 -705 437.021C-705.019 429.003 -704.437 419.131 -702.567 408.59C-700.975 399.615 -697.095 381.936 -685.987 363.854C-674.673 345.436 -647.789 315.591 -602.68 312.192C-602.521 310.529 -602.326 308.853 -602.095 307.165C-596.442 265.866 -571.585 239.105 -554.73 225.27C-530.931 205.736 -501.97 193.985 -475.077 188.04C-453.348 174.797 -431.923 171.26 -424.473 170.051C-422.314 169.701 -420.159 169.392 -418.016 169.121C-412.624 163.69 -406.957 158.973 -401.194 154.886C-379.07 112.193 -340.021 90.0264 -306.554 80.8759C-271.821 71.3793 -236.267 73.1065 -206.111 79.7503ZM776.962 467.392C776.953 467.394 776.853 467.411 776.675 467.438C776.881 467.404 776.972 467.39 776.962 467.392Z" fill="#FED2F5"/>
<path d="M-177.759 52.0645L-178.359 51.2647L-177.759 52.0645ZM-206.111 79.7503L-206.326 80.7269L-205.711 80.8624L-205.323 80.3665L-206.111 79.7503ZM-152.73 36.5622L-152.279 37.4547L-152.177 37.4033L-152.089 37.3302L-152.73 36.5622ZM-85.3207 5.55036L-85.5039 4.56729V4.56729L-85.3207 5.55036ZM99.025 38.9589L98.4796 39.797L99.025 38.9589ZM118.23 53.8983L117.551 54.632L117.994 55.042L118.563 54.8415L118.23 53.8983ZM122.589 52.3911L122.268 51.4441V51.4441L122.589 52.3911ZM217.619 41.8236L217.493 42.8156L217.619 41.8236ZM303.911 73.5858L304.44 72.7367L303.911 73.5858ZM370.361 144.166L369.47 144.619L369.684 145.042L370.148 145.143L370.361 144.166ZM399.889 152.606L400.221 151.663L399.889 152.606ZM446.046 173.293L445.569 174.172L445.67 174.226L445.779 174.256L446.046 173.293ZM454.872 175.992L455.19 175.044L454.872 175.992ZM521.03 216.265L520.341 216.989L520.674 217.306L521.131 217.26L521.03 216.265ZM546.301 214.882L546.311 215.882L546.482 215.88L546.643 215.822L546.301 214.882ZM620.616 199.095L620.571 198.096L620.616 199.095ZM692.97 213.214L692.552 214.122L692.709 214.194L692.881 214.21L692.97 213.214ZM709.369 215.512L709.18 216.493L709.369 215.512ZM785.032 255.913L785.77 255.237L785.032 255.913ZM799.044 274.654L798.187 275.169L798.367 275.469L798.696 275.591L799.044 274.654ZM852.973 322.563L853.862 322.105L852.973 322.563ZM846.262 425.324L847.084 425.893L846.262 425.324ZM820.539 450.904L819.974 450.079L820.539 450.904ZM808.85 457.798L809.299 458.692L808.85 457.798ZM798.717 462.214L799.067 463.151H799.067L798.717 462.214ZM791.136 464.73L791.418 465.69L791.136 464.73ZM748.645 472.894L748.555 471.898L748.527 471.9L748.499 471.905L748.645 472.894ZM699.168 474.346L699.249 473.349L698.855 473.317L698.546 473.563L699.168 474.346ZM631.37 508.021L631.095 507.059L631.37 508.021ZM614.048 512.064L613.868 511.08L613.578 511.133L613.363 511.336L614.048 512.064ZM589.355 530.092L588.862 529.222L589.355 530.092ZM562.581 542.354L562.233 541.417L562.581 542.354ZM518.234 555.013L518.443 555.991L518.234 555.013ZM472.843 560.495L472.827 561.495L472.843 560.495ZM432.804 555.177L433.052 554.208L432.921 554.175L432.785 554.177L432.804 555.177ZM379.184 552.462L379.352 551.477L379.184 552.462ZM349.991 544.577L350.346 543.642L349.824 543.444L349.382 543.784L349.991 544.577ZM338.621 553.122L339.208 553.932L338.621 553.122ZM289.693 580.027L289.344 579.09L289.693 580.027ZM189.982 592.642L189.933 593.641L189.982 592.642ZM111.646 581.623L111.872 580.649L111.646 581.623ZM70.5378 569.137L70.8871 568.2L70.4374 568.033L70.0253 568.279L70.5378 569.137ZM-36.6174 601.799L-36.5193 602.794L-36.6174 601.799ZM-115.867 603.87L-115.88 604.87L-115.867 603.87ZM-128.022 603.736L-128.016 602.736L-128.022 603.736ZM-233.503 596.81L-233.596 597.805L-233.503 596.81ZM-274.272 593.327L-274.209 592.329H-274.209L-274.272 593.327ZM-278.158 593.081L-278.221 594.079L-278.158 593.081ZM-358.146 583.288L-357.924 582.312L-358.146 583.288ZM-417.01 561.707L-416.535 560.827L-416.812 560.677L-417.126 560.714L-417.01 561.707ZM-510.468 568.614L-510.468 567.614H-510.468L-510.468 568.614ZM-579.051 564.315L-579.208 565.303L-579.051 564.315ZM-633.127 548.229L-632.692 547.329L-633.127 548.229ZM-699.448 474.626L-698.497 474.316H-698.497L-699.448 474.626ZM-704.999 437.345L-703.999 437.344L-704.999 437.345ZM-705 437.021L-706 437.024L-706 437.024L-705 437.021ZM-702.567 408.59L-701.583 408.764H-701.583L-702.567 408.59ZM-685.987 363.854L-686.839 363.331L-685.987 363.854ZM-602.68 312.192L-602.605 313.189L-601.765 313.126L-601.685 312.287L-602.68 312.192ZM-602.095 307.165L-603.086 307.029L-602.095 307.165ZM-554.73 225.27L-554.095 226.043L-554.73 225.27ZM-475.077 188.04L-474.862 189.016L-474.699 188.98L-474.557 188.894L-475.077 188.04ZM-424.473 170.051L-424.633 169.064L-424.473 170.051ZM-418.016 169.121L-417.89 170.113L-417.549 170.07L-417.306 169.825L-418.016 169.121ZM-401.194 154.886L-400.616 155.702L-400.418 155.561L-400.306 155.346L-401.194 154.886ZM-306.554 80.8759L-306.29 81.8405L-306.554 80.8759ZM776.962 467.392L776.737 466.418L776.735 466.418L776.962 467.392ZM776.675 467.438L776.512 466.451L776.823 468.427L776.675 467.438ZM-178.359 51.2647C-188.47 58.8521 -198.277 68.1121 -206.899 79.1342L-205.323 80.3665C-196.82 69.4954 -187.143 60.3563 -177.159 52.8644L-178.359 51.2647ZM-153.181 35.6697C-161.851 40.0511 -170.296 45.2137 -178.359 51.2647L-177.159 52.8644C-169.195 46.8882 -160.851 41.7866 -152.279 37.4547L-153.181 35.6697ZM-85.5039 4.56729C-111.599 9.4313 -134.63 20.1659 -153.37 35.7942L-152.089 37.3302C-133.628 21.9337 -110.916 11.3384 -85.1375 6.53343L-85.5039 4.56729ZM99.5705 38.1208C43.7582 1.79497 -26.0325 -6.51791 -85.5039 4.56729L-85.1375 6.53343C-26.0724 -4.47602 43.175 3.80175 98.4796 39.797L99.5705 38.1208ZM118.91 53.1646C112.856 47.5579 106.366 42.5435 99.5705 38.1208L98.4796 39.797C105.184 44.1604 111.583 49.1054 117.551 54.632L118.91 53.1646ZM122.268 51.4441C120.844 51.9273 119.386 52.4308 117.898 52.9552L118.563 54.8415C120.043 54.3198 121.494 53.8189 122.911 53.3381L122.268 51.4441ZM217.745 40.8316C184.307 36.5733 152.333 41.2419 122.268 51.4441L122.911 53.3381C152.74 43.216 184.405 38.602 217.493 42.8156L217.745 40.8316ZM304.44 72.7367C279.718 57.3573 250.978 45.0637 217.745 40.8316L217.493 42.8156C250.378 47.0035 278.847 59.1708 303.383 74.4349L304.44 72.7367ZM371.252 143.713C355.729 113.192 331.519 89.583 304.44 72.7367L303.383 74.4349C330.211 91.1248 354.141 114.48 369.47 144.619L371.252 143.713ZM400.221 151.663C392.096 148.803 382.034 145.692 370.574 143.189L370.148 145.143C381.51 147.624 391.49 150.711 399.557 153.55L400.221 151.663ZM446.523 172.413C432.658 164.897 416.972 157.559 400.221 151.663L399.557 153.55C416.189 159.404 431.778 166.695 445.569 174.172L446.523 172.413ZM455.19 175.044C452.243 174.055 449.283 173.15 446.312 172.329L445.779 174.256C448.715 175.068 451.64 175.962 454.553 176.94L455.19 175.044ZM521.72 215.541C503.979 198.657 481.883 184.003 455.19 175.044L454.553 176.94C480.933 185.794 502.782 200.279 520.341 216.989L521.72 215.541ZM546.292 213.882C537.805 213.963 529.32 214.421 520.929 215.27L521.131 217.26C529.458 216.417 537.883 215.962 546.311 215.882L546.292 213.882ZM620.571 198.096C595.482 199.226 569.51 205.381 545.959 213.942L546.643 215.822C570.052 207.312 595.821 201.212 620.661 200.094L620.571 198.096ZM693.387 212.305C671.163 202.096 646.208 196.942 620.571 198.096L620.661 200.094C645.973 198.955 670.611 204.043 692.552 214.122L693.387 212.305ZM709.558 214.53C704.2 213.497 698.685 212.721 693.059 212.218L692.881 214.21C698.441 214.707 703.889 215.474 709.18 216.493L709.558 214.53ZM785.77 255.237C761.996 229.305 731.912 218.838 709.558 214.53L709.18 216.493C731.295 220.756 760.917 231.087 784.295 256.589L785.77 255.237ZM799.901 274.138C795.863 267.425 791.134 261.089 785.77 255.237L784.295 256.589C789.569 262.342 794.218 268.571 798.187 275.169L799.901 274.138ZM853.862 322.105C836.208 287.825 806.205 276.247 799.392 273.716L798.696 275.591C805.371 278.071 834.78 289.42 852.083 323.02L853.862 322.105ZM847.084 425.893C858.845 408.919 877.436 367.881 853.862 322.105L852.083 323.02C875.179 367.868 856.988 408.087 845.44 424.754L847.084 425.893ZM821.104 451.729C824.63 449.314 836.615 441.001 847.084 425.893L845.44 424.754C835.177 439.565 823.427 447.714 819.974 450.079L821.104 451.729ZM809.299 458.692C811.635 457.518 816.003 455.222 821.104 451.729L819.974 450.079C814.973 453.504 810.691 455.754 808.402 456.904L809.299 458.692ZM799.067 463.151C800.629 462.568 804.551 461.076 809.299 458.692L808.402 456.904C803.745 459.243 799.9 460.706 798.367 461.278L799.067 463.151ZM791.418 465.69C792.567 465.352 795.525 464.473 799.067 463.151L798.368 461.278C794.891 462.575 791.986 463.438 790.854 463.771L791.418 465.69ZM748.735 473.89C763.921 472.519 778.226 469.57 791.418 465.69L790.854 463.771C777.773 467.618 763.597 470.54 748.555 471.898L748.735 473.89ZM699.087 475.343C713.431 476.508 730.097 476.637 748.791 473.883L748.499 471.905C729.987 474.632 713.477 474.506 699.249 473.349L699.087 475.343ZM631.645 508.982C650.479 503.597 676.65 493.512 699.79 475.129L698.546 473.563C675.686 491.723 649.788 501.715 631.095 507.059L631.645 508.982ZM614.227 513.048C620.059 511.984 625.873 510.632 631.645 508.982L631.095 507.059C625.387 508.691 619.637 510.028 613.868 511.08L614.227 513.048ZM589.848 530.962C594.475 528.339 604.339 522.57 614.733 512.793L613.363 511.336C603.139 520.952 593.435 526.629 588.862 529.222L589.848 530.962ZM562.93 543.292C570.434 540.502 580.083 536.499 589.848 530.962L588.862 529.222C579.222 534.687 569.68 538.648 562.233 541.417L562.93 543.292ZM518.443 555.991C531.548 553.187 547.691 548.957 562.93 543.292L562.233 541.417C547.11 547.039 531.066 551.245 518.025 554.035L518.443 555.991ZM472.827 561.495C489.669 561.764 508.176 558.188 518.443 555.991L518.025 554.035C507.77 556.229 489.456 559.76 472.859 559.495L472.827 561.495ZM432.556 556.146C444.583 559.22 457.985 561.258 472.827 561.495L472.859 559.495C458.183 559.26 444.937 557.246 433.052 554.208L432.556 556.146ZM379.016 553.448C398.399 556.75 421.828 556.381 432.823 556.177L432.785 554.177C421.768 554.382 398.522 554.742 379.352 551.477L379.016 553.448ZM349.637 545.512C359.371 549.202 369.237 551.782 379.016 553.448L379.352 551.477C369.69 549.831 359.95 547.283 350.346 543.642L349.637 545.512ZM339.208 553.932C343.417 550.882 347.538 547.726 350.601 545.369L349.382 543.784C346.32 546.14 342.218 549.281 338.034 552.312L339.208 553.932ZM290.043 580.964C311.69 572.894 328.276 561.854 339.208 553.932L338.034 552.312C327.168 560.187 310.75 571.11 289.344 579.09L290.043 580.964ZM189.933 593.641C216.404 594.938 254.479 594.221 290.043 580.964L289.344 579.09C254.16 592.206 216.408 592.936 190.031 591.643L189.933 593.641ZM111.419 582.597C133.145 587.652 161.155 592.231 189.933 593.641L190.031 591.643C161.39 590.24 133.5 585.681 111.872 580.649L111.419 582.597ZM70.1886 570.074C83.7014 575.11 97.551 579.37 111.419 582.597L111.872 580.649C98.0953 577.443 84.3276 573.209 70.8871 568.2L70.1886 570.074ZM-36.5193 602.794C-5.81335 599.768 33.7538 592.261 71.0504 569.996L70.0253 568.279C33.0872 590.33 -6.14868 597.792 -36.7155 600.804L-36.5193 602.794ZM-115.88 604.87C-94.251 605.155 -64.4683 605.548 -36.5193 602.794L-36.7155 600.804C-64.5359 603.545 -94.2089 603.155 -115.854 602.87L-115.88 604.87ZM-128.028 604.736C-124.374 604.758 -120.298 604.812 -115.88 604.87L-115.854 602.87C-120.27 602.812 -124.353 602.758 -128.016 602.736L-128.028 604.736ZM-233.596 597.805C-201.035 600.847 -161.523 604.538 -128.028 604.736L-128.016 602.736C-161.408 602.538 -200.827 598.857 -233.41 595.814L-233.596 597.805ZM-274.336 594.325C-263.316 595.03 -249.264 596.342 -233.596 597.805L-233.41 595.814C-249.067 594.352 -263.152 593.036 -274.209 592.329L-274.336 594.325ZM-278.221 594.079C-276.886 594.163 -275.591 594.245 -274.336 594.325L-274.209 592.329C-275.464 592.249 -276.761 592.167 -278.095 592.083L-278.221 594.079ZM-358.368 584.263C-329.328 590.865 -299.06 592.768 -278.221 594.079L-278.095 592.083C-298.95 590.771 -329.064 588.873 -357.924 582.312L-358.368 584.263ZM-417.486 562.587C-396.932 573.693 -376.287 580.189 -358.368 584.263L-357.924 582.312C-375.723 578.266 -396.185 571.824 -416.535 560.827L-417.486 562.587ZM-508.803 569.613C-478.195 569.613 -444.211 565.887 -416.894 562.7L-417.126 560.714C-444.451 563.902 -478.326 567.613 -508.803 567.613V569.613ZM-510.467 569.614C-509.879 569.614 -509.324 569.613 -508.803 569.613V567.613C-509.325 567.613 -509.881 567.614 -510.468 567.614L-510.467 569.614ZM-579.208 565.303C-551.761 569.648 -523.34 569.625 -510.467 569.614L-510.468 567.614C-523.347 567.625 -551.623 567.645 -578.895 563.327L-579.208 565.303ZM-633.561 549.13C-613.549 558.78 -593.332 563.066 -579.208 565.303L-578.895 563.327C-592.932 561.105 -612.931 556.857 -632.692 547.329L-633.561 549.13ZM-700.399 474.935C-686.229 518.502 -652.669 539.917 -633.561 549.13L-632.692 547.329C-651.575 538.224 -684.569 517.139 -698.497 474.316L-700.399 474.935ZM-705.999 437.346C-705.994 441.495 -705.978 457.782 -700.399 474.935L-698.497 474.316C-703.974 457.477 -703.994 441.453 -703.999 437.344L-705.999 437.346ZM-706 437.024C-705.999 437.121 -705.999 437.228 -705.999 437.346L-703.999 437.344C-703.999 437.226 -703.999 437.117 -704 437.019L-706 437.024ZM-703.552 408.415C-705.434 419.025 -706.019 428.957 -706 437.024L-704 437.019C-704.019 429.049 -703.44 419.237 -701.583 408.764L-703.552 408.415ZM-686.839 363.331C-698.041 381.567 -701.95 399.386 -703.552 408.415L-701.583 408.764C-700 399.844 -696.148 382.306 -685.135 364.378L-686.839 363.331ZM-602.755 311.195C-648.306 314.627 -675.433 344.763 -686.839 363.331L-685.135 364.378C-673.912 346.109 -647.272 316.555 -602.605 313.189L-602.755 311.195ZM-603.086 307.029C-603.319 308.731 -603.515 310.42 -603.675 312.096L-601.685 312.287C-601.527 310.638 -601.334 308.975 -601.105 307.3L-603.086 307.029ZM-555.364 224.498C-572.321 238.416 -597.385 265.382 -603.086 307.029L-601.105 307.3C-595.499 266.35 -570.849 239.795 -554.095 226.043L-555.364 224.498ZM-475.293 187.064C-502.299 193.034 -531.415 204.84 -555.364 224.498L-554.095 226.043C-530.447 206.633 -501.641 194.937 -474.862 189.016L-475.293 187.064ZM-424.633 169.064C-432.112 170.277 -453.697 173.838 -475.598 187.186L-474.557 188.894C-453 175.755 -431.735 172.242 -424.313 171.039L-424.633 169.064ZM-418.141 168.129C-420.296 168.401 -422.462 168.712 -424.633 169.064L-424.313 171.039C-422.166 170.69 -420.023 170.383 -417.89 170.113L-418.141 168.129ZM-401.773 154.07C-407.58 158.188 -413.291 162.942 -418.725 168.416L-417.306 169.825C-411.958 164.438 -406.335 159.758 -400.616 155.702L-401.773 154.07ZM-306.818 79.9113C-340.47 89.1125 -379.794 111.417 -402.082 154.426L-400.306 155.346C-378.346 112.969 -339.572 90.9403 -306.29 81.8405L-306.818 79.9113ZM-205.896 78.7738C-236.168 72.1043 -271.892 70.3619 -306.818 79.9113L-306.29 81.8405C-271.75 72.3967 -236.366 74.1088 -206.326 80.7269L-205.896 78.7738ZM776.735 466.418C776.756 466.414 776.772 466.411 776.772 466.411C776.776 466.41 776.779 466.409 776.779 466.409C776.78 466.409 776.778 466.409 776.773 466.41C776.763 466.412 776.747 466.415 776.725 466.418C776.68 466.425 776.614 466.436 776.527 466.449L776.823 468.427C776.971 468.404 777.129 468.38 777.189 468.366L776.735 466.418ZM776.837 468.424C776.939 468.408 777.01 468.396 777.053 468.389C777.076 468.386 777.088 468.384 777.092 468.384C777.098 468.383 777.088 468.384 777.074 468.386C777.07 468.386 777.058 468.388 777.043 468.389C777.036 468.389 777.021 468.391 777.003 468.391C776.996 468.392 776.941 468.394 776.873 468.388C776.857 468.387 776.737 468.378 776.597 468.323C776.537 468.299 776.344 468.219 776.183 468.018C775.964 467.745 775.903 467.377 776.025 467.046C776.115 466.801 776.275 466.664 776.326 466.622C776.394 466.565 776.455 466.53 776.486 466.513C776.548 466.479 776.601 466.46 776.619 466.453C776.662 466.437 776.696 466.428 776.705 466.426C776.719 466.422 776.731 466.419 776.737 466.418L777.188 468.367C777.194 468.365 777.206 468.362 777.22 468.358C777.229 468.356 777.264 468.347 777.307 468.331C777.325 468.325 777.377 468.305 777.44 468.271C777.471 468.254 777.532 468.219 777.6 468.163C777.651 468.121 777.811 467.983 777.901 467.738C778.023 467.407 777.961 467.039 777.743 466.767C777.582 466.565 777.389 466.485 777.328 466.461C777.188 466.406 777.069 466.398 777.053 466.396C776.984 466.39 776.93 466.393 776.923 466.393C776.904 466.394 776.889 466.395 776.882 466.395C776.866 466.397 776.854 466.398 776.849 466.399C776.83 466.401 776.814 466.403 776.809 466.404C776.792 466.406 776.771 466.409 776.746 466.413C776.695 466.421 776.617 466.434 776.512 466.451L776.837 468.424Z" fill="black"/>
</svg>
