<svg width="894" height="894" viewBox="0 0 894 894" fill="none" xmlns="http://www.w3.org/2000/svg">
<circle cx="447" cy="447" r="442.5" fill="#B5CBF9" stroke="#53265F" stroke-width="9"/>
<path d="M738.5 515C738.5 659.563 608.871 777.5 448 777.5C287.129 777.5 157.5 659.563 157.5 515C157.5 370.437 287.129 252.5 448 252.5C608.871 252.5 738.5 370.437 738.5 515Z" fill="#F9E3DF" stroke="#53265F" stroke-width="9" stroke-linejoin="round"/>
<path d="M511.912 373.347C499.034 394.043 456.761 427.355 392.672 396.304C374.834 387.662 363.77 374.832 357.728 360.87C346.557 386.051 310.06 431.556 253.442 412.126C250.672 411.175 248.083 410.136 245.667 409.017C234.262 450.761 141.398 457.737 130.235 391.12C122.683 346.056 150.931 327.537 172.946 322.032C144.359 303.357 146.325 244.426 190.306 212.884C228.649 185.386 270.172 197.108 290.072 207.413C285.832 193.693 289.026 162.08 335.724 145.392C382.422 128.704 416.424 154.431 427.588 169.38C439.007 152.245 477.365 130.769 539.353 145.818C588.943 157.857 608.935 199.272 612.732 218.474C623.894 210.715 661.92 211.92 689.766 239.757C730.761 280.741 727.469 315.211 716.935 331.748C732.002 329.455 762.354 335.824 763.223 379.637C764.092 423.45 718.342 428.009 695.359 424.811C665.5 440.454 628.071 414.852 623.566 396.93C617.764 403.63 608.148 409.617 592.599 411.48C555.115 415.971 525.074 390.465 511.912 373.347Z" fill="#FFE599"/>
<path d="M363.441 292.609C352.17 307.351 346.929 335.918 357.728 360.87M511.912 373.347C499.034 394.043 456.761 427.355 392.672 396.304C374.834 387.662 363.77 374.832 357.728 360.87M511.912 373.347C505.203 363.273 495.435 341.414 497.451 316.496M511.912 373.347C525.074 390.465 555.115 415.971 592.599 411.48C608.148 409.617 617.764 403.63 623.566 396.93M631.628 375.51C632.024 379.663 630.589 388.819 623.566 396.93M623.566 396.93C628.071 414.852 665.5 440.454 695.359 424.811M695.359 424.811C700.073 422.342 709.23 408.377 704.137 396.929M695.359 424.811C718.342 428.009 764.092 423.45 763.223 379.637C762.354 335.824 732.002 329.455 716.935 331.748C727.469 315.211 730.761 280.741 689.766 239.757C661.92 211.92 623.894 210.715 612.732 218.474M232.562 310.611C216.745 335.094 198.689 387.256 245.667 409.017M357.728 360.87C346.557 386.051 310.06 431.556 253.442 412.126C250.672 411.175 248.083 410.136 245.667 409.017M184.128 320.236C180.779 320.455 176.966 321.026 172.946 322.032M245.667 409.017C234.262 450.761 141.398 457.737 130.235 391.12C122.683 346.056 150.931 327.537 172.946 322.032M172.946 322.032C144.359 303.357 146.325 244.426 190.306 212.884C228.649 185.386 270.172 197.108 290.072 207.413C285.832 193.693 289.026 162.08 335.724 145.392C382.422 128.704 416.424 154.431 427.588 169.38M427.588 169.38C439.007 152.245 477.365 130.769 539.353 145.818C588.943 157.857 608.935 199.272 612.732 218.474M427.588 169.38C423.921 175.437 418.238 190.695 424.846 203.27M612.732 218.474C604.759 224.015 590.64 238.557 597.948 252.392" stroke="#53265F" stroke-width="9" stroke-linejoin="round"/>
<circle cx="346" cy="501.314" r="46.5" fill="#F5F5F5" stroke="#53265F" stroke-width="9"/>
<path d="M301 448.314L318.5 466.814" stroke="#53265F" stroke-width="9"/>
<path d="M346.09 432.314L345.367 457.77" stroke="#53265F" stroke-width="9"/>
<path d="M390.312 448.314L374.49 468.268" stroke="#53265F" stroke-width="9"/>
<path d="M297 533.815C312.5 528.315 349.4 523.415 373 547.815C336.6 573.415 307.167 549.148 297 533.815Z" fill="#F9E3DF"/>
<path d="M374.5 548.815C363.5 538.481 332.5 521.415 296.5 535.815" stroke="#53265F" stroke-width="10"/>
<path d="M378.001 501.314C378.001 518.988 363.674 533.314 346.001 533.314C332.571 533.314 321.074 525.042 316.327 513.314L333.5 504.814L314.314 496.814C316.502 481.272 329.855 469.314 346.001 469.314C363.674 469.314 378.001 483.641 378.001 501.314Z" fill="#53265F"/>
<circle cx="51" cy="51" r="46.5" transform="matrix(-1 0 0 1 582 447.314)" fill="#F5F5F5" stroke="#53265F" stroke-width="9"/>
<path d="M576 445.314L558.5 463.814" stroke="#53265F" stroke-width="9"/>
<path d="M530.91 429.314L531.633 454.77" stroke="#53265F" stroke-width="9"/>
<path d="M486.688 445.314L502.51 465.268" stroke="#53265F" stroke-width="9"/>
<path d="M580 530.815C564.5 525.315 527.6 520.415 504 544.815C540.4 570.415 569.833 546.148 580 530.815Z" fill="#F9E3DF"/>
<path d="M502.5 545.815C513.5 535.481 544.5 518.415 580.5 532.815" stroke="#53265F" stroke-width="10"/>
<path d="M562.686 498.314C562.686 515.988 548.359 530.314 530.686 530.314C517.257 530.314 505.759 522.042 501.012 510.314L518.186 501.814L499 493.814C501.187 478.272 514.54 466.314 530.686 466.314C548.359 466.314 562.686 480.641 562.686 498.314Z" fill="#53265F"/>
<circle cx="597" cy="613.314" r="64.5" fill="#F79DDB" stroke="#53265F" stroke-width="9"/>
<circle cx="289" cy="613.314" r="64.5" fill="#F79DDB" stroke="#53265F" stroke-width="9" stroke-linejoin="round"/>
<path d="M436.503 512.314C423.836 511.148 396.903 507.214 390.503 500.814C387.669 517.814 390.003 552.614 422.003 555.814" stroke="#53265F" stroke-width="9" stroke-linejoin="round"/>
<path d="M381.892 599.473C397.41 618.616 443.092 645.417 501.677 599.473M408.569 645.062C416.241 652.561 438.175 663.061 464.538 645.062M495.4 590C496.621 597.105 501.049 610.841 509 608.946M387.123 590C385.728 596.315 380.951 608.946 373 608.946" stroke="#53265F" stroke-width="10"/>
</svg>
